<svg id="Layer_1" data-name="Layer 1" xmlns="http://www.w3.org/2000/svg" viewBox="0 0 44 29"><defs><style>.cls-1</style></defs><title>certificate</title><path class="cls-1" d="M20.53,19l0,.17a8.47,8.47,0,0,1-2.62,6.76,10.69,10.69,0,0,1-7.43,2.45,10,10,0,0,1-7.67-3.1,11,11,0,0,1-2.84-8V11.92a11.27,11.27,0,0,1,2.76-8A9.73,9.73,0,0,1,10.3.76c3.27,0,5.8.8,7.64,2.4A8.23,8.23,0,0,1,20.62,9.9l-.05.1H15.32c0-2-.41-3-1.25-3.84A5.19,5.19,0,0,0,10.23,4.9,4.44,4.44,0,0,0,6.41,6.85a8.63,8.63,0,0,0-1.41,5v5.37A8.37,8.37,0,0,0,6.48,22.3a4.69,4.69,0,0,0,4,2,4.78,4.78,0,0,0,3.62-1.32c.79-.84,1.2-1.94,1.2-3.94Z"/><path class="cls-1" d="M42,16H32v8H44v4H27V1H44V5H32v7H42Z"/></svg>