<svg id="Layer_1" data-name="Layer 1" xmlns="http://www.w3.org/2000/svg" viewBox="0 0 39 50"><defs><style>.cls-1{fill:#f9423e;}.cls-2{fill:#d00;}.cls-3{fill:#fff;}</style></defs><title>doc1</title><path class="cls-1" d="M39,44.46A5.76,5.76,0,0,1,33.23,50H5.54A5.55,5.55,0,0,1,0,44.46V5.69A5.69,5.69,0,0,1,5.54,0h18L39,15.38Z"/><path class="cls-2" d="M38.77,15H29.08A4.86,4.86,0,0,1,24,9.85V.15Z"/><path class="cls-3" d="M12.11,30.5,9.55,26.37h1.2l1.7,2.84.3.68.29-.68,1.8-2.84h1.1l-2.64,4,2.76,4.36H14.9l-1.9-3L12.68,31l-.31.72-1.94,3H9.31Z"/><path class="cls-3" d="M22.4,34.77h-5v-8.4h1v7.51h4Z"/><path class="cls-3" d="M27.43,32.63a1.15,1.15,0,0,0-.3-.82,3,3,0,0,0-.75-.56,9.67,9.67,0,0,0-1-.46,5.32,5.32,0,0,1-1-.52,2.76,2.76,0,0,1-.75-.76,2,2,0,0,1-.3-1.15,1.93,1.93,0,0,1,.68-1.56A2.93,2.93,0,0,1,26,26.23a7.57,7.57,0,0,1,1.33.11,3.59,3.59,0,0,1,.94.28l-.3.89a3.91,3.91,0,0,0-.81-.26A5.36,5.36,0,0,0,26,27.11a1.73,1.73,0,0,0-1.19.35,1.12,1.12,0,0,0-.1,1.61,3.09,3.09,0,0,0,.75.56q.45.25,1,.49a6,6,0,0,1,1,.56,3,3,0,0,1,.75.76,1.93,1.93,0,0,1,.3,1.1,2.37,2.37,0,0,1-.19,1,2,2,0,0,1-.56.74,2.62,2.62,0,0,1-.9.48,4,4,0,0,1-1.2.17,6.68,6.68,0,0,1-1.49-.14,4.07,4.07,0,0,1-.91-.31l.34-.89a3.88,3.88,0,0,0,.82.3,4.63,4.63,0,0,0,1.21.15,3.42,3.42,0,0,0,.74-.08,1.7,1.7,0,0,0,.6-.25,1.32,1.32,0,0,0,.4-.44A1.25,1.25,0,0,0,27.43,32.63Z"/></svg>