<svg id="Layer_1" data-name="Layer 1" xmlns="http://www.w3.org/2000/svg" viewBox="0 0 39 50"><defs><style>.cls-1{fill:#f9423e;}.cls-2{fill:#d00;}.cls-3{fill:#fff;}</style></defs><title>doc2</title><path class="cls-1" d="M39,44.46A5.76,5.76,0,0,1,33.23,50H5.54A5.55,5.55,0,0,1,0,44.46V5.69A5.69,5.69,0,0,1,5.54,0h18L39,15.38Z"/><path class="cls-2" d="M38.77,15H29.08A4.86,4.86,0,0,1,24,9.85V.15Z"/><path class="cls-3" d="M9,26.45a6,6,0,0,1,1-.14c.35,0,.7,0,1,0a6,6,0,0,1,1.12.11,3.05,3.05,0,0,1,1,.4,2.24,2.24,0,0,1,.76.79,2.52,2.52,0,0,1,.29,1.28,2.78,2.78,0,0,1-.28,1.3,2.43,2.43,0,0,1-.73.86,3,3,0,0,1-1,.47,5.07,5.07,0,0,1-1.21.14h-.49l-.29,0-.2,0v3.19H9Zm2.05.68h-.6a2.07,2.07,0,0,0-.46.06v3.48l.19,0H11a4.26,4.26,0,0,0,.81-.08,2.11,2.11,0,0,0,.73-.28A1.49,1.49,0,0,0,13,29.8a2,2,0,0,0,.2-.95A1.65,1.65,0,0,0,13,28a1.49,1.49,0,0,0-.49-.53,2.08,2.08,0,0,0-.69-.28A3.57,3.57,0,0,0,11.07,27.14Z"/><path class="cls-3" d="M15.73,26.37l.51-.05.59,0H18a4.47,4.47,0,0,1,1.75.31,3.23,3.23,0,0,1,1.22.87,3.61,3.61,0,0,1,.71,1.34,6.29,6.29,0,0,1,0,3.35,3.94,3.94,0,0,1-.7,1.39,3.47,3.47,0,0,1-1.25,1,4.29,4.29,0,0,1-1.86.37h-.5l-.63,0-.6,0-.4,0Zm2.27.79h-.71l-.33,0-.23,0v6.72L17,34h.92a3.11,3.11,0,0,0,1.41-.29,2.44,2.44,0,0,0,.91-.77,3.13,3.13,0,0,0,.49-1.12,5.78,5.78,0,0,0,.14-1.3,5.44,5.44,0,0,0-.13-1.18,3.13,3.13,0,0,0-.46-1.07,2.5,2.5,0,0,0-.87-.79A2.78,2.78,0,0,0,18,27.16Z"/><path class="cls-3" d="M23.58,26.37h4.57v.89H24.57v2.87h3.34V31H24.57v3.76h-1Z"/></svg>