<svg id="Layer_1" data-name="Layer 1" xmlns="http://www.w3.org/2000/svg" viewBox="0 0 39 50"><defs><style>.cls-1{fill:#f9423e;}.cls-2{fill:#d00;}.cls-3{fill:#fff;}</style></defs><title>doc3</title><path class="cls-1" d="M39,44.46A5.76,5.76,0,0,1,33.23,50H5.54A5.55,5.55,0,0,1,0,44.46V5.69A5.69,5.69,0,0,1,5.54,0h18L39,15.38Z"/><path class="cls-2" d="M38.77,15H29.08A4.86,4.86,0,0,1,24,9.85V.15Z"/><path class="cls-3" d="M9,26.37l.51-.05.59,0h1.15a4.47,4.47,0,0,1,1.75.31,3.23,3.23,0,0,1,1.22.87,3.61,3.61,0,0,1,.71,1.34,6.29,6.29,0,0,1,0,3.35,3.94,3.94,0,0,1-.7,1.39,3.47,3.47,0,0,1-1.25,1,4.29,4.29,0,0,1-1.86.37h-.5l-.63,0-.6,0-.4,0Zm2.27.79h-.71l-.33,0-.23,0v6.72l.23,0h.92a3.11,3.11,0,0,0,1.41-.29,2.44,2.44,0,0,0,.91-.77A3.13,3.13,0,0,0,14,31.81a5.78,5.78,0,0,0,.14-1.3A5.44,5.44,0,0,0,14,29.33a3.13,3.13,0,0,0-.46-1.07,2.5,2.5,0,0,0-.87-.79A2.78,2.78,0,0,0,11.29,27.16Z"/><path class="cls-3" d="M16.52,30.57a5.09,5.09,0,0,1,.89-3.22,3,3,0,0,1,2.53-1.12,3.51,3.51,0,0,1,1.54.31,2.89,2.89,0,0,1,1.07.88,3.86,3.86,0,0,1,.63,1.37,7.21,7.21,0,0,1,.2,1.78,5.06,5.06,0,0,1-.89,3.22,3.07,3.07,0,0,1-2.55,1.12,3.44,3.44,0,0,1-1.52-.31,2.89,2.89,0,0,1-1.07-.88,3.84,3.84,0,0,1-.63-1.37A7.21,7.21,0,0,1,16.52,30.57Zm1.06,0a6.05,6.05,0,0,0,.14,1.32,3.58,3.58,0,0,0,.43,1.1,2.26,2.26,0,0,0,.74.76,2,2,0,0,0,1.06.28,2.07,2.07,0,0,0,1.75-.85,4.35,4.35,0,0,0,.64-2.61,6.14,6.14,0,0,0-.14-1.31,3.51,3.51,0,0,0-.43-1.1A2.32,2.32,0,0,0,21,27.4a2,2,0,0,0-1.07-.28,2,2,0,0,0-1.73.85A4.37,4.37,0,0,0,17.58,30.57Z"/><path class="cls-3" d="M30.45,34.42a2.16,2.16,0,0,1-.91.38,6.14,6.14,0,0,1-1.18.11,3.86,3.86,0,0,1-1.42-.26,3.11,3.11,0,0,1-1.15-.79A3.79,3.79,0,0,1,25,32.52a5.9,5.9,0,0,1-.29-2,5.56,5.56,0,0,1,.32-2,3.82,3.82,0,0,1,.84-1.34,3.23,3.23,0,0,1,1.17-.76,3.78,3.78,0,0,1,1.32-.24,7.2,7.2,0,0,1,1.18.08,3.78,3.78,0,0,1,.78.21l-.24.89a3.77,3.77,0,0,0-1.64-.29,2.75,2.75,0,0,0-1,.18,2.24,2.24,0,0,0-.86.59A3,3,0,0,0,26,28.95a5,5,0,0,0-.23,1.62A4.77,4.77,0,0,0,26,32.08a3.1,3.1,0,0,0,.59,1.08,2.43,2.43,0,0,0,.89.65,2.82,2.82,0,0,0,1.11.22,3.64,3.64,0,0,0,.94-.11,2.61,2.61,0,0,0,.68-.28Z"/></svg>