<svg id="Layer_1" data-name="Layer 1" xmlns="http://www.w3.org/2000/svg" viewBox="0 0 74 77"><defs><style>.cls-1{fill:#fff;fill-rule:evenodd;}</style></defs><title>logo</title><path class="cls-1" d="M16.59,0H59V11H74V36.91L59,50.15V76.37c0,.84-.71.39-.71,0C54.08,73.25,50.14,69.61,46,66.19c-1.49.54-2.12,1.94-3.62,2.48-3,3-6.66,5.33-9.72,8.33h-.25c-4-4-8.49-7.22-12.73-10.88a64.88,64.88,0,0,0-5.09,4.11c-.54.43-1,1.14-1.78,1.29a10.63,10.63,0,0,1-3.31,2.81,5.05,5.05,0,0,1-1.23,1.53c-.58,0-1.23,1.54-1.23.77V61H0V35l7-6V9.93C10,6.36,13.39,3.5,16.59,0Zm3.56,4c-.32,0-.16-.11-.16.33V17.06c1,.33,1.22-.74,1.86-1.27a19.66,19.66,0,0,0,1.95-1.63C25.4,13.21,26.19,11,28,11H55.79c-.15-3,.32-6-.25-7ZM32,15V33H70V26H66.49c-.74,1,.16,3,.16,3H36V19H67v3h3V15ZM3,36V54L25,35V18c0-.16.22-1,0-1Z"/></svg>