<svg id="Layer_1" data-name="Layer 1" xmlns="http://www.w3.org/2000/svg" viewBox="0 0 69.75 92"><defs><style>.cls-1,.cls-2{fill:none;stroke-miterlimit:10;stroke-width:3px;}.cls-1{stroke:#484f59;}.cls-2{stroke:#f9423e;}</style></defs><title>order1</title><polygon class="cls-1" points="68.5 90.5 68.5 41.86 68.5 18.89 51.61 1.5 1.5 1.5 1.5 19.48 1.5 41.86 1.5 90.5 68.5 90.5 68.5 90.5"/><polyline class="cls-1" points="51.5 1 51.5 18.5 51.5 18.5 69 18.5"/><path class="cls-1" d="M21,32.5H60m-39,7H52m-31,11H60m-39,7H52m-31,12H60m-39,6H52m-14.5-57h-27v-7h27v7Z"/><path class="cls-2" d="M18.48,30.67l-5,6.3-2.31-2.13m7.33,14.33-5,6.3-2.31-2.13"/><path class="cls-2" d="M18.48,67.17l-5,6.3-2.31-2.13"/></svg>