<svg id="Layer_1" data-name="Layer 1" xmlns="http://www.w3.org/2000/svg" viewBox="0 0 43 56"><defs><style>.cls-1{fill:none;stroke:#484f59;stroke-miterlimit:10;stroke-width:3px;}</style></defs><title>pack</title><path class="cls-1" d="M21.8,39.4a8.21,8.21,0,0,1-8.2-8.2c0-4.23,6.75-12.89,7.52-13.87a.87.87,0,0,1,1.37,0C23.25,18.31,30,27,30,31.2a8.21,8.21,0,0,1-8.2,8.2Zm0-20.1"/><path class="cls-1" d="M25.8,30.43c0,2.6-.76,4.71-3.36,4.71m-.65.78"/><path class="cls-1" d="M41.17,8.54C25.29,8.54,22,2,22,2c-.12-.3.33,0,0,0l-.71-.5c-.32,0-.17.22-.29.5,0,.07-2.54,6.43-18.37,6.43-.44,0-1.13.47-1.13.9v25C1.5,45.43,20.2,53.65,21,54c.11.05-.12,0,0,0a8,8,0,0,0,1.06.23c.81-.35,19.44-8.81,19.44-19.87v-25c0-.43.11-.79-.33-.79Zm-6.08,26"/></svg>