<svg id="Layer_1" data-name="Layer 1" xmlns="http://www.w3.org/2000/svg" viewBox="0 0 55 41"><defs><style>.cls-1,.cls-3,.cls-5{fill:none;stroke-width:3px;}.cls-1,.cls-5{stroke:#484f59;}.cls-1,.cls-3{stroke-linejoin:round;}.cls-2,.cls-4{fill:#484f59;}.cls-2{fill-rule:evenodd;}.cls-3{stroke:#f9423e;}.cls-5{stroke-miterlimit:10;}</style></defs><title>payment3</title><path class="cls-1" d="M9,7.63l1.61-2.71a2.92,2.92,0,0,1,3.24-2.54L50.47,7A2.92,2.92,0,0,1,53,10.2l-2.58,21.2A3.58,3.58,0,0,1,47,34.63"/><path class="cls-2" d="M46,10.63c.14.45,1,1,1,2v5l5,1,.24-6.08Z"/><rect class="cls-3" x="1.5" y="11.5" width="42" height="28" rx="3" ry="3"/><circle class="cls-1" cx="9.5" cy="19.13" r="1.5"/><circle class="cls-1" cx="15.5" cy="19.13" r="1.5"/><path class="cls-4" d="M39,34H33V31h6Zm-8,0H24V31h7Zm-9,0H15V31h7Zm-9,0H6V31h7Z"/><path class="cls-4" d="M39,27H29V25H39Z"/><line class="cls-5" x1="11" y1="19.5" x2="15" y2="19.5"/></svg>