<svg xmlns="http://www.w3.org/2000/svg" viewBox="0 0 50.5 55.5"><defs><style>.cls-1,.cls-2{fill:none;stroke-width:3px;}.cls-1{stroke:#484f59;}.cls-1,.cls-2,.cls-4{stroke-linejoin:round;}.cls-2,.cls-4{stroke:#f9423e;}.cls-3{font-size:13.84px;fill:#f9423e;font-family:Roboto-Regular, Roboto Regular;}.cls-4{fill:#fff;}</style></defs><title>payment2_1</title><g id="Слой_2" data-name="Слой 2"><g id="Layer_1" data-name="Layer 1"><line class="cls-1" x1="38.5" y1="32" x2="38.5" y2="8"/><polyline class="cls-1" points="1.5 11 1.5 47.5 6.53 43 11 47 15.47 43 19.94 47 22 44"/><path class="cls-1" d="M1.5,17V9"/><line class="cls-1" x1="5" y1="1.5" x2="43" y2="1.5"/><line class="cls-1" x1="8" y1="11.5" x2="19" y2="11.5"/><line class="cls-1" x1="8" y1="19.5" x2="30" y2="19.5"/><line class="cls-1" x1="8" y1="25.5" x2="30" y2="25.5"/><line class="cls-1" x1="8" y1="31.5" x2="20" y2="31.5"/><path class="cls-1" d="M38.5,9v.5H49c0-5-.09-8-5.25-8-5,0-5.25,2.5-5.25,7.5"/><path class="cls-1" d="M1.5,9.5c0-5,0-8,5.59-8"/><circle class="cls-2" cx="33.75" cy="42.25" r="11.75"/><text class="cls-3" transform="matrix(0.93, 0, 0, 1, 30.22, 47.73)">P</text><line class="cls-4" x1="30" y1="45.5" x2="35" y2="45.5"/></g></g></svg>