<svg id="Layer_1" data-name="Layer 1" xmlns="http://www.w3.org/2000/svg" viewBox="0 0 55 50"><defs><style>.cls-1,.cls-2{fill:none;stroke-linejoin:round;stroke-width:3px;}.cls-1{stroke:#484f59;}.cls-2{stroke:#f9423e;fill-rule:evenodd;}</style></defs><title>payment1</title><path class="cls-1" d="M38,9.5h4.19c2.3,0,4.31.85,4.31,2.32V14"/><path class="cls-1" d="M49.5,28V22.17c0-2.75-2.7-4.67-5.45-4.67H4.62c-1.55,0-2.82-1.79-2.82-4s2.25-4,5-4H14"/><path class="cls-1" d="M1.5,13V43.08c0,2.75,2.25,5.42,5,5.42H44c2.75,0,5.45-2.45,5.45-4.93V39"/><rect class="cls-1" x="39.5" y="27.5" width="14" height="11" rx="3" ry="3"/><polyline class="cls-2" points="7.51 13.9 26.53 1.42 30 6.07"/><polyline class="cls-2" points="17.19 13.66 34.48 3.21 41.4 13.66"/><circle class="cls-1" cx="44.75" cy="32.92" r="0.45"/></svg>