<svg id="Layer_1" data-name="Layer 1" xmlns="http://www.w3.org/2000/svg" viewBox="0 0 20 20"><defs><style>.cls-1{opacity:0.2;}.cls-2{fill:none;stroke:#fff;stroke-linecap:round;stroke-linejoin:round;stroke-width:2px;}</style></defs><title>phone</title><g class="cls-1"><path class="cls-2" d="M17.57,14.2l-1.49-1.49-1-1a1.69,1.69,0,0,0-1-.49,1.73,1.73,0,0,0-1.75,1l-.57,1.14L7.29,8.85l1.14-.57a1.73,1.73,0,0,0,1-1.75,1.69,1.69,0,0,0-.49-1l-1-1L6.46,3.09A1.75,1.75,0,0,0,4,3.09L2.76,4.32h0c-1,1-.84,3,.25,5.19A18.09,18.09,0,0,0,6.46,14.2a18.07,18.07,0,0,0,4.69,3.45c2.22,1.09,4.18,1.27,5.19.25l1.23-1.23a1.74,1.74,0,0,0,0-2.47Z"/></g></svg>