<svg id="Layer_1" data-name="Layer 1" xmlns="http://www.w3.org/2000/svg" viewBox="0 0 100 110"><defs><style>.cls-1,.cls-2{fill:none;}.cls-1,.cls-3{stroke:#484f59;stroke-linejoin:round;}.cls-1,.cls-2,.cls-3{stroke-width:3px;}.cls-2{stroke:#f9423e;stroke-miterlimit:10;}.cls-3{fill:#f1f2f2;}</style></defs><title>product9</title><path class="cls-1" d="M32.74,76c4-3.64,9.82-7.92,16.28-7.92,6.29,0,11.95,4.17,15.95,7.63,4-3.47,9.66-7.63,15.95-7.63a24.11,24.11,0,0,1,16.72,6.34c-4.51-20.69-21.44-34.91-48-34.91C24.05,39.51,7.38,52.8,2.23,72.38a24.87,24.87,0,0,1,14.24-4.3C22.92,68.08,28.73,72.37,32.74,76Z"/><path class="cls-2" d="M53.92,14.92a4,4,0,0,1-8,0c0-2.2,4-11.3,4-11.3S53.92,12.72,53.92,14.92Z"/><path class="cls-2" d="M86.48,31.54a4,4,0,1,1-8,0c0-2.2,4-11.3,4-11.3S86.48,29.33,86.48,31.54Z"/><path class="cls-2" d="M21.36,31.54a4,4,0,0,1-8,0c0-2.2,4-11.3,4-11.3S21.36,29.33,21.36,31.54Z"/><line class="cls-3" x1="49.66" y1="33.58" x2="49.66" y2="39.78"/><path class="cls-1" d="M35.85,100.24a7.4,7.4,0,0,0,7.4,7.4c4.09,0,6.4-2.91,6.4-7v-32"/></svg>