<svg id="Layer_1" data-name="Layer 1" xmlns="http://www.w3.org/2000/svg" viewBox="0 0 100 103"><defs><style>.cls-1,.cls-2{fill:none;}.cls-1{stroke:#484f59;}.cls-1,.cls-2,.cls-3{stroke-miterlimit:10;stroke-width:3px;}.cls-2,.cls-3{stroke:#f9423e;}.cls-3{fill:#f1f2f2;}</style></defs><title>product6</title><polygon class="cls-1" points="89.5 101.5 10.5 101.5 10.5 1.5 74.06 1.5 89.5 17.13 89.5 101.5"/><polyline class="cls-2" points="48 88.5 70.5 88.5 70.5 57.5 78.5 57.5 78.5 28.5 21.5 28.5 21.5 88.5 40 88.5"/><line class="cls-3" x1="52.5" y1="57" x2="52.5" y2="29"/><line class="cls-3" x1="53.5" y1="73" x2="53.5" y2="88"/><line class="cls-3" x1="52" y1="67.5" x2="71" y2="67.5"/><line class="cls-3" x1="37" y1="67.5" x2="22" y2="67.5"/><line class="cls-3" x1="35.5" y1="73" x2="35.5" y2="88"/><line class="cls-3" x1="53" y1="50.5" x2="37" y2="50.5"/><line class="cls-3" x1="31" y1="50.5" x2="22" y2="50.5"/><polyline class="cls-1" points="89 19.5 72.5 19.5 72.5 2"/></svg>