<svg id="Layer_1" data-name="Layer 1" xmlns="http://www.w3.org/2000/svg" viewBox="0 0 100 100"><defs><style>.cls-1,.cls-2{fill:none;stroke-miterlimit:10;stroke-width:3px;fill-rule:evenodd;}.cls-1{stroke:#484f59;}.cls-2{stroke:#f9423e;}</style></defs><title>product12</title><path class="cls-1" d="M72.48,47.73c-3.4-2.14-7.66-1.23-12.83-1.23h-21c-5.08,0-10.88-1.28-15.06,2.28-3,2.56-5.78,5.5-8.68,8.4C11.67,60.41,8.15,63.3,5.65,67c2,3.2,5,5.68,7.68,8.37s5.09,6.15,8.27,8c3.53-1.67,9.06-8.82,9.06-8.82h23c3.23,0,6.56-.18,9.25-2.27,2.9-2.24,5.5-3.76,8.1-6.37,6.76-6.76,13.31-13.45,20.2-20.34,1.44-1.44,3.19-2.91,3.92-4.18a6,6,0,0,0-8.25-8.07c-2.46,1.47-4.66,4.68-7,7-2.56,2.56-5,5.39-7.44,7.47"/><path class="cls-2" d="M48,35.88c4.22,2.25,12.31-2.38,16-6a27.3,27.3,0,0,0,7.61-18.51c-10-1-13,2-17.84,5.27"/><path class="cls-2" d="M48,35.88c-1.42.57-2.65,1-4.33-.35-3.3-2.65-5.6-9.18-6.15-13.57-.76-6,1.33-17.18,7.56-20.58,7.53,2,6.23,10.12,8.69,15.27"/><path class="cls-2" d="M48,35.88c1.27-4.79,4.06-8.47,4.72-13.37.24-1.76.15-4,1-5.87"/><path class="cls-1" d="M69.83,47c5,4,.83,10.5-3.17,10.5H46"/></svg>