<svg id="Layer_1" data-name="Layer 1" xmlns="http://www.w3.org/2000/svg" viewBox="0 0 100 100"><defs><style>.cls-1,.cls-2{fill:none;}.cls-1{stroke:#484f59;}.cls-1,.cls-2,.cls-3{stroke-miterlimit:10;stroke-width:3px;}.cls-2,.cls-3{stroke:#f9423e;}.cls-3{fill:#f9423e;}</style></defs><title>product5</title><rect class="cls-1" x="17.5" y="1.5" width="65" height="97" rx="5" ry="5"/><circle class="cls-1" cx="26.47" cy="9.88" r="1"/><circle class="cls-1" cx="73.53" cy="9.88" r="1"/><circle class="cls-1" cx="26.47" cy="90.28" r="1"/><circle class="cls-1" cx="73.53" cy="90.28" r="1"/><line class="cls-1" x1="35" y1="58.5" x2="40" y2="58.5"/><line class="cls-1" x1="35" y1="49.5" x2="40" y2="49.5"/><line class="cls-1" x1="35" y1="40.5" x2="40" y2="40.5"/><line class="cls-1" x1="35" y1="31.5" x2="40" y2="31.5"/><line class="cls-1" x1="35" y1="22.5" x2="40" y2="22.5"/><path class="cls-1" d="M55.5,66.92V17.63a4.74,4.74,0,0,0-4.45-5c-.09,0-.14,0-.22,0l-.54,0a5,5,0,0,0-4.79,5V67.06a11.7,11.7,0,0,0-5.67,9.7,11,11,0,0,0,11,10.87A10.89,10.89,0,0,0,61.74,76.76,10.36,10.36,0,0,0,55.5,66.92Z"/><line class="cls-2" x1="50.5" y1="21" x2="50.5" y2="76"/><circle class="cls-3" cx="50.61" cy="76.63" r="4.5"/></svg>