<svg id="Layer_1" data-name="Layer 1" xmlns="http://www.w3.org/2000/svg" viewBox="0 0 100 97"><defs><style>.cls-1{fill:#484f59;}.cls-2{fill:none;stroke:#f9423e;stroke-miterlimit:10;stroke-width:3px;fill-rule:evenodd;}</style></defs><title>product14</title><path class="cls-1" d="M45,56.77V38H42V60h1a4.92,4.92,0,0,1,.77-1.44A4.67,4.67,0,0,1,45,56.77Z"/><path class="cls-1" d="M43.43,59l-1.62-1.54L29.93,70,32.11,72,42.75,60.85A5.26,5.26,0,0,1,43.43,59Z"/><rect class="cls-1" x="9.71" y="46.96" width="36.94" height="3" transform="matrix(0.87, -0.5, 0.5, 0.87, -20.46, 20.58)"/><polygon class="cls-1" points="22.44 66.02 19.59 65.07 24.66 49.94 8.57 46.05 9.27 43.14 26.96 47.41 28.03 49.34 22.44 66.02"/><rect class="cls-1" x="25.82" y="11.53" width="3" height="36.94" transform="translate(-12.31 38.66) rotate(-60)"/><polygon class="cls-1" points="9.24 33.8 8.65 30.86 24.28 27.69 19.6 11.81 22.48 10.96 27.62 28.41 26.48 30.3 9.24 33.8"/><rect class="cls-1" x="42" y="1" width="3" height="37"/><polygon class="cls-1" points="43.98 19.06 41.77 19.02 30.52 6.29 32.77 4.3 42.93 15.8 53.91 4.26 56.09 6.33 43.98 19.06"/><path class="cls-1" d="M68.75,22.57,41.55,38.27l1.5,2.6L68.76,26A21.38,21.38,0,0,0,68.75,22.57Z"/><path class="cls-1" d="M68.12,30.38l-6.31-1.52,3.93-11.72a5.35,5.35,0,0,1-.51-1.65c-.52-.48-1.08-.93-1.64-1.36L58.45,29.46l1.07,1.93,8.16,2L68.26,31A4.14,4.14,0,0,1,68.12,30.38Z"/><path class="cls-2" d="M66.53,14.5h.36A22.76,22.76,0,0,1,79.24,28.77c1.74,5.67,1.18,12-.36,17.37a19.07,19.07,0,0,0-1.21,5.41,16.29,16.29,0,0,0,3.51,10,21.88,21.88,0,0,1,.24-12.11,16.58,16.58,0,0,1,.85-1.82c.17-.33.21-.7.36-1,.06-.11.29-.25.36-.36s0-.14.12-.24l.12-.12a15.93,15.93,0,0,1,3.27-3.51,11.35,11.35,0,0,1,1.57-1.09c.23-.12.55-.51.85-.24a48.27,48.27,0,0,0-.6,9.2,13.07,13.07,0,0,0,2.3,7.14c.31.41.65.78,1,1.21.43.59,1,1.46,1.45,2.18a30.71,30.71,0,0,1,1.45,2.79A20.36,20.36,0,0,1,96.67,73a16.17,16.17,0,0,1-.73,4.48,14.54,14.54,0,0,1-1.69,3.51c-2.41,3.83-5.84,6.13-10.17,8.11-.43.2-.78.37-1.33.6-.3.13-.5.18-1,.36a41.74,41.74,0,0,1-5.57,1.57,4.31,4.31,0,0,1-2.06.24c0-.67.74-.65,1.09-.85,2.65-1.51,5.49-3.62,5.69-7.75a13.6,13.6,0,0,0-1.09-5.45c-.14-.36-.4-.72-.61-1.21a31.44,31.44,0,0,1-1.45-4.36c-.5-2-.8-4.37,0-6.3-.05-.34-.36.19-.48.24s-.19,0-.24,0c-.22.15-.4.44-.6.61s-.5.27-.73.48a7.07,7.07,0,0,0-2.18,4.48,12.82,12.82,0,0,1,.12,1.81c-.29.38-.4-.15-.6-.24a6.82,6.82,0,0,1-1.94-1.94c-.11-.13-.25-.21-.36-.36s-.15-.24-.24-.36c-.22-.28-.46-.58-.73-.85-.1-.1-.14-.26-.24-.36s-.14-.26-.24-.36-.14-.26-.24-.36-.22-.38-.36-.61a15.35,15.35,0,0,1-2.06-7,14.57,14.57,0,0,1,1.09-5.21c-.05-.34-.36.19-.48.24s-.19,0-.24,0-.14.29-.24.36-.26,0-.36.12-.38.4-.61.61A11.18,11.18,0,0,0,64,59.27a9.69,9.69,0,0,0-.85,1.82c-.14.35-.38.61-.48,1s-.18.75-.24,1.09a15.87,15.87,0,0,0,.48,6.9,10.8,10.8,0,0,1,.61,4.24,8.1,8.1,0,0,1-1.7,4c-.25.32-.46.89-1,.85-.16-1,.39-1.89.48-2.91a7.71,7.71,0,0,0-3.15-7.38c.16,2.46.33,4.92-.48,6.66a11.83,11.83,0,0,1-1.21,1.7,10.87,10.87,0,0,0-2.3,6.29A7.82,7.82,0,0,0,55.63,88c.07.1.16.13.24.24a7.93,7.93,0,0,0,1.33,1.33c.38.3,1.08.44,1.09,1.09-.27.29-.57,0-.85-.12a29.5,29.5,0,0,1-7.87-3.75,5.77,5.77,0,0,1-.85-.61c-.4-.38-1.28-.85-1.82-1.33-.18-.17-.28-.41-.48-.61s-.64-.49-1-.85-.73-.77-1.09-1.21c-.2-.25-.48-.61-.73-1s-.22-.49-.36-.73c0,0-.22-.08-.24-.12a29,29,0,0,1-1.94-4.6c-1.36-5.16,0-11.17,1.82-15.37.12-.29.25-.56.36-.85.2-.49.49-1,.72-1.57s.3-.79.49-1.21a48.17,48.17,0,0,0,2.18-6.42c1-3.87,1.85-9.2.36-13.2a9.17,9.17,0,0,0-.6-1.09,2.41,2.41,0,0,1-.48-1.21c.87-.05,1.51.58,2.18,1,.18.11.45.14.61.24s.24.28.36.36.42.12.61.24.21.26.36.36a18,18,0,0,1,1.82,1.33,17.66,17.66,0,0,1,4,5.21,12.72,12.72,0,0,1,1.21,7.38c.16.27.59-.53.85-.73.07-.06.29-.05.36-.12.38-.37.61-.83,1-1.21s.73-.69,1.09-1.09a9.11,9.11,0,0,0,.85-.85c.08-.12,0-.26.12-.36s.29-.14.36-.24,0-.26.12-.36.29-.14.36-.24,0-.26.12-.36c.3-.4.67-.79,1-1.21a39.59,39.59,0,0,0,3.27-5.45c.37-.75.61-1.39,1-2.3a27.1,27.1,0,0,0,1.94-11.62,24.3,24.3,0,0,0-1.94-7.87c-.33-.79-.68-1.36-1.09-2.17C66.37,14.54,66.52,14.5,66.53,14.5Z"/></svg>