<svg id="Layer_1" data-name="Layer 1" xmlns="http://www.w3.org/2000/svg" viewBox="0 0 100 108"><defs><style>.cls-1,.cls-2{fill:none;}.cls-1{stroke:#484f59;}.cls-1,.cls-2,.cls-3{stroke-miterlimit:10;stroke-width:3px;}.cls-2,.cls-3{stroke:#f9423e;}.cls-3{fill:#f1f2f2;}</style></defs><title>product2</title><path class="cls-1" d="M61.5,12c0,1-1.26,1.5-2.26,1.5H46.1c-1,0-2.6-.5-2.6-1.5V3a2.47,2.47,0,0,1,2.35-1.41l13,0A2.85,2.85,0,0,1,61.5,3v9Z"/><line class="cls-1" x1="28.56" y1="26.07" x2="25.72" y2="21.15"/><line class="cls-1" x1="30.31" y1="18.5" x2="33.16" y2="23.42"/><path class="cls-1" d="M32.4,16.65A1.13,1.13,0,0,1,32,18.18l-7.08,4.09a1.13,1.13,0,0,1-1.54-.41l-2.66-4.6a1.12,1.12,0,0,1,.41-1.53l7.08-4.09a1.13,1.13,0,0,1,1.54.41l2.66,4.6Z"/><line class="cls-1" x1="76.58" y1="25.48" x2="79.35" y2="20.68"/><line class="cls-1" x1="74.87" y1="18.09" x2="72.1" y2="22.89"/><path class="cls-1" d="M72.51,16.65a1.13,1.13,0,0,0,.41,1.54L80,22.27a1.13,1.13,0,0,0,1.53-.41l2.66-4.6a1.12,1.12,0,0,0-.41-1.53L76.7,11.63a1.13,1.13,0,0,0-1.53.41l-2.66,4.6Z"/><path class="cls-1" d="M13.83,75A42.22,42.22,0,0,1,26.07,28a41.6,41.6,0,0,1,67.11,41.4,41.86,41.86,0,0,1-36.07,31.93l-1,.09"/><path class="cls-1" d="M60,95.2a35.9,35.9,0,0,0-7.32-71.05h0A35.9,35.9,0,0,0,18.82,72"/><path class="cls-1" d="M52.4,31.07v4.87m-14.45-.86,2.44,4.22M27.44,45.8l4.22,2.44m-8,12.09h4.87M67.4,85,65,80.78M77.91,74.3l-4.22-2.44m8-12.09H76.78m.85-14.45-4.22,2.44M66.92,34.81,64.49,39M55.14,57.22l13-13.43M56.44,60a3.73,3.73,0,1,0-3.73,3.73A3.74,3.74,0,0,0,56.44,60Z"/><path class="cls-2" d="M39,99.5H55.5v7H22"/><path class="cls-2" d="M47.5,100v7"/><polyline class="cls-2" points="40 92.5 58.5 92.5 58.5 99.5 38 99.5"/><path class="cls-2" d="M49.5,92v7m5-7v7"/><polyline class="cls-2" points="40 86.5 55.5 86.5 55.5 92.5 40 92.5"/><path class="cls-2" d="M48.5,86v5"/><polyline class="cls-2" points="37 79.5 58.5 79.5 58.5 86.5 39 86.5"/><path class="cls-3" d="M52.5,79v6"/><polyline class="cls-2" points="22 71.5 55.5 71.5 55.5 79.5 36 79.5"/><path class="cls-2" d="M48.5,72v6"/><path class="cls-2" d="M40.5,89.09A17.81,17.81,0,1,1,22.69,71.37,17.63,17.63,0,0,1,40.5,88.74Z"/><polyline class="cls-2" points="23.5 96 23.5 82.36 19 87.3"/><line class="cls-2" x1="20" y1="95.5" x2="27" y2="95.5"/><rect class="cls-1" x="49.5" y="14.5" width="6" height="4"/></svg>