<svg id="Layer_1" data-name="Layer 1" xmlns="http://www.w3.org/2000/svg" viewBox="0 0 100 97"><defs><style>.cls-1{fill:#484f59;}.cls-2{fill:#f1f2f2;}.cls-3{fill:none;stroke:#f9423e;stroke-linejoin:round;stroke-width:3px;}</style></defs><title>product11</title><path class="cls-1" d="M3.63,31.2h-3C.63,14.64,13.88,2.14,31.45,2.14c18,0,32,12.67,32,28.86h-3c0-14.5-12.76-25.86-29-25.86C15.59,5.14,3.63,16.35,3.63,31.2Z"/><path class="cls-1" d="M23.88,87.66a4.62,4.62,0,0,1,1.95-2.56H13.26A3.31,3.31,0,0,1,10,81.6V35H7V81.6C7,85.24,9.49,88,13,88H24C24.1,87.85,23.77,87.8,23.88,87.66Z"/><path class="cls-1" d="M56,67.83V35H53V66.75a4.58,4.58,0,0,1,1.76.68A4.69,4.69,0,0,1,56,67.83Z"/><path class="cls-1" d="M57.5,37H6.5A1.5,1.5,0,0,1,5,35.5v-5A1.5,1.5,0,0,1,6.5,29h51A1.5,1.5,0,0,1,59,30.5v5A1.5,1.5,0,0,1,57.5,37ZM8,34H56V32H8Z"/><rect class="cls-1" x="58" y="31" width="5" height="3"/><rect class="cls-1" x="2" y="31" width="5" height="3"/><path class="cls-2" d="M46.57,8A27.14,27.14,0,0,0,31.45,3.89,27.7,27.7,0,0,0,16.18,8"/><path class="cls-1" d="M16.18,11.47A3.5,3.5,0,0,1,14.27,5,31,31,0,0,1,31.44.39h0A30.57,30.57,0,0,1,48.48,5a3.5,3.5,0,0,1-3.83,5.86,23.73,23.73,0,0,0-13.2-3.51h0a24.11,24.11,0,0,0-13.35,3.52A3.48,3.48,0,0,1,16.18,11.47Z"/><path class="cls-3" d="M65.7,77.17l5.91,3c3.76,1.88,3.48,4.17-.63,5.08L28.53,94.64c-4.11.91-5.28-1-2.6-4.24L40.42,72.87a10.1,10.1,0,0,1,11.72-2.48"/><polyline class="cls-3" points="46.57 82.27 60.59 73.35 65.69 58.04"/><path class="cls-3" d="M97.81,40.1A4.69,4.69,0,0,1,96,46.74L72.43,59.46a5.33,5.33,0,0,1-7-1.85,5.4,5.4,0,0,1,1.5-7.11L88.85,35a4.64,4.64,0,0,1,6.7,1.38Z"/></svg>