<svg id="Layer_1" data-name="Layer 1" xmlns="http://www.w3.org/2000/svg" viewBox="0 0 75 55"><defs><style>.cls-1{fill:none;stroke:#484f59;stroke-miterlimit:10;stroke-width:3px;}</style></defs><title>prod2</title><path class="cls-1" d="M51,10.5,43,10l.65-1.9a3.52,3.52,0,0,0,0-4.65,3,3,0,0,0-4.23-.21L33.18,9.39a3.53,3.53,0,0,0,0,5l6.25,6.22a3,3,0,0,0,4.23,0,2.08,2.08,0,0,0,0-3.39L43,16l8,.5c7.14,0,12.21,4.79,12.21,11.72S56.5,39.94,49.5,39.94v6c12,0,19.7-7.49,19.7-17.71S61.45,10.5,51,10.5Z"/><path class="cls-1" d="M38.46,34.15a3,3,0,0,0-4.23,0,2.2,2.2,0,0,0,0,3.51L34,39l-7-.5c-7.15,0-13.19-4.92-13.19-11.84S20.5,14.82,26.5,14.82v-6c-11,0-18.71,8.11-18.71,18.33S16.52,45.5,27,45.5l7,.5.23,1.27a3.12,3.12,0,0,0,0,4.34,3,3,0,0,0,2.12.93,3,3,0,0,0,2.11-.85l6.25-6.23a3.59,3.59,0,0,0,0-5.07Z"/></svg>