<svg id="Layer_1" data-name="Layer 1" xmlns="http://www.w3.org/2000/svg" viewBox="0 0 100 125"><defs><style>.cls-1,.cls-3{fill:none;}.cls-1,.cls-2{stroke:#484f59;}.cls-1,.cls-2,.cls-3{stroke-linejoin:round;stroke-width:3px;}.cls-2{fill:#f1f2f2;}.cls-3{stroke:#f9423e;}</style></defs><title>product7</title><polyline class="cls-1" points="1.65 69.16 1.65 92.76 54.44 122.95 98.74 102.19 98.74 78.6"/><polyline class="cls-1" points="10 64.98 1.65 69.16 54.44 99.36 98.74 78.6 91 74.11"/><line class="cls-2" x1="54.5" y1="99" x2="54.5" y2="124"/><polyline class="cls-3" points="15 53.99 1.65 60.67 54.44 90.87 98.74 70.11 85 62.14"/><polyline class="cls-1" points="1.65 22.92 1.65 46.51 54.44 76.71 98.74 55.95 98.74 32.36 98 32.28"/><polygon class="cls-1" points="1.65 22.92 54.44 53.12 98.74 32.36 45.01 1.22 1.65 22.92"/><line class="cls-2" x1="54.5" y1="53" x2="54.5" y2="77"/></svg>