<svg id="Layer_1" data-name="Layer 1" xmlns="http://www.w3.org/2000/svg" viewBox="0 0 100 100"><defs><style>.cls-1,.cls-2{fill:none;stroke-linejoin:round;stroke-width:3px;}.cls-1{stroke:#f9423e;}.cls-2{stroke:#484f59;}</style></defs><title>product1</title><polyline class="cls-1" points="16 80.5 1.5 80.5 1.5 98.5 98.5 98.5 98.5 80.5 84 80.5"/><line class="cls-1" x1="79" y1="80.5" x2="21" y2="80.5"/><line class="cls-1" x1="11.5" y1="80" x2="11.5" y2="91"/><line class="cls-1" x1="37.5" y1="80" x2="37.5" y2="91"/><line class="cls-1" x1="61.5" y1="80" x2="61.5" y2="91"/><line class="cls-1" x1="49.5" y1="80" x2="49.5" y2="87"/><line class="cls-1" x1="75.5" y1="80" x2="75.5" y2="87"/><line class="cls-1" x1="23.5" y1="80" x2="23.5" y2="87"/><line class="cls-1" x1="87.5" y1="80" x2="87.5" y2="91"/><line class="cls-2" x1="40" y1="50.5" x2="60" y2="50.5"/><line class="cls-2" x1="77.5" y1="45" x2="77.5" y2="55"/><polyline class="cls-2" points="61.9 33.44 83.48 78.63 82.75 88.82 71.08 64.23 65.43 60.44 55.57 40.37 55.9 40"/><polyline class="cls-2" points="37.21 33.44 15.63 78.63 16.36 88.82 28.04 64.23 33.69 60.44 43.55 40.37 43.21 40"/><circle class="cls-2" cx="48.84" cy="26.51" r="14.2"/><circle class="cls-2" cx="48.84" cy="26.51" r="7.68"/><line class="cls-2" x1="48.5" y1="12" x2="48.5" y2="2"/><rect class="cls-2" x="45.5" y="1.5" width="6" height="6"/><line class="cls-2" x1="69" y1="50.5" x2="78" y2="50.5"/></svg>