<svg id="Layer_1" data-name="Layer 1" xmlns="http://www.w3.org/2000/svg" viewBox="0 0 100 106"><defs><style>.cls-1,.cls-2,.cls-3{fill:none;}.cls-1,.cls-2{stroke:#484f59;stroke-linejoin:round;}.cls-1,.cls-2,.cls-3,.cls-4{stroke-width:3px;}.cls-1{fill-rule:evenodd;}.cls-3,.cls-4{stroke:#f9423e;stroke-miterlimit:10;}.cls-4{fill:#f1f2f2;}</style></defs><title>product8</title><polyline class="cls-1" points="13.5 71 13.5 40.98 13.14 36.46 17.68 12.54"/><polyline class="cls-1" points="17.5 15 17.5 1.5 70.5 1.5 70.5 11.68 75.87 35.38 76.28 36.38 76.5 43.83 76.5 68"/><path class="cls-1" d="M76,66.71a21.61,21.61,0,0,0,2.74,1c1.77.8,3,2.22,4.47,3.69,3.59,3.59,5.2,6.2,9.13,10.13,2.2,2.2,4.74,4.38,5.4,6.12"/><path class="cls-1" d="M30.34,70a72.68,72.68,0,0,0,5.43-5.45c.31-.39,3.67-3.37,3.82-3.72"/><path class="cls-1" d="M38,62.44c1.61-1.61,4.44-4.52,6-6.1,1.94-1.94,3.44-3.81,6.35-4.08a8.41,8.41,0,0,1,5.81,2.12c1.39,1.24,14.07,14,15.14,15"/><path class="cls-1" d="M54,90.5H90.63c2.13,0,8.86.12,7.24-2.57"/><path class="cls-1" d="M76,66.71c-1.82.69-3.56,1.55-5.36,2.25"/><path class="cls-1" d="M70.6,69C66,75,61,79,55.91,84"/><path class="cls-2" d="M63.82,26.56A4.33,4.33,0,0,1,59.4,31.5H30.47a4.33,4.33,0,0,1-4.42-4.94l.45-4a5.89,5.89,0,0,1,5.58-5.09H57.78a5.89,5.89,0,0,1,5.59,5.09Z"/><line class="cls-2" x1="25" y1="38.5" x2="52" y2="38.5"/><line class="cls-2" x1="25" y1="50.5" x2="41" y2="50.5"/><line class="cls-2" x1="25" y1="44.5" x2="52" y2="44.5"/><path class="cls-3" d="M36,98.5H52.5v6H19"/><path class="cls-4" d="M44.5,99v7"/><polyline class="cls-3" points="37 91.5 55.5 91.5 55.5 98.5 34 98.5"/><path class="cls-4" d="M46.5,91v7m5-7v7"/><polyline class="cls-3" points="37 85.5 52.5 85.5 52.5 91.5 37 91.5"/><path class="cls-4" d="M45.5,85v5"/><polyline class="cls-3" points="34 78.5 55.5 78.5 55.5 85.5 36 85.5"/><path class="cls-4" d="M49.5,78v6"/><polyline class="cls-3" points="19 70.5 52.5 70.5 52.5 78.5 33 78.5"/><path class="cls-4" d="M45.5,71v6"/><path class="cls-3" d="M36.87,87.33A17.37,17.37,0,1,1,19.49,70,17.37,17.37,0,0,1,36.87,87.33Z"/><polyline class="cls-3" points="20.5 95 20.5 80.94 16 86.1"/><line class="cls-3" x1="17" y1="94.5" x2="24" y2="94.5"/><line class="cls-2" x1="17" y1="11.5" x2="53" y2="11.5"/></svg>