<svg id="Layer_1" data-name="Layer 1" xmlns="http://www.w3.org/2000/svg" viewBox="0 0 100 90"><defs><style>.cls-1{fill:#484f59;}.cls-2,.cls-3{fill:none;stroke:#f9423e;stroke-miterlimit:10;stroke-width:3px;}.cls-2{fill-rule:evenodd;}.cls-4{fill:#f9423e;}</style></defs><title>product4</title><path class="cls-1" d="M43.92,73H5V55H42.6l.08-.45A4.44,4.44,0,0,1,44,52H2V76H45.56A4.4,4.4,0,0,1,43.92,73Z"/><path class="cls-1" d="M89.94,52a5.29,5.29,0,0,1-.83,3H95V73H74.32a4.52,4.52,0,0,1-1.68,3H98V52Z"/><path class="cls-1" d="M23,29V47H5V29H23m3-3H2V50H26V26Z"/><path class="cls-1" d="M50,47H31V29H72.51c.05-.28.12-.55.17-.83a4.69,4.69,0,0,1,1-2.17H28V50H49.38v-.5A4.92,4.92,0,0,1,50,47Z"/><path class="cls-1" d="M45,3V21H5V3H45m3-3H2V24H48V0Z"/><path class="cls-2" d="M83,8.13c5,8.69,9.42,20.57,8.1,33.82-2,19.56-7.82,22.27-8.35,23.25-4,2-11.25,5.76-16.93,4.93.3,1,2,2,9.53,2.78-5,4.62-18.62,8.8-27.25,5.93-1.93-1.56-2.89-2.48-3.12-4.65-.9-.94-1.61-3.12-2.12-5a25.07,25.07,0,0,1,1.32-17.53c2.36,4.75,2,5.58,6.36,8.54-1.61-5.85.22-5.35-.76-11.22-.11-.66.83-2.53.89-2.94.4-2.5,3.53-4.71,6-6.4S77.06,32.13,83,8.13Z"/><path class="cls-3" d="M28.06,85.88C50.66,75.7,70.48,57.81,79.88,34.53"/><path class="cls-4" d="M92.24,33.65c.49-.43-.22-1.13-.71-.71a8.14,8.14,0,0,0-1,1,.46.46,0,0,0-.49.35,5.28,5.28,0,0,1-.23.6c-.95,1.31-1.87,2.61-3.59,3-.64.16-.35,1.05.27,1a5.21,5.21,0,0,0,.69-.15,4,4,0,0,0,4.28-2.25.5.5,0,0,0-.43-.75l-.13,0c.08-.15.16-.29.23-.44a.51.51,0,0,0,0-.52A9.56,9.56,0,0,1,92.24,33.65Z"/><path class="cls-4" d="M65.54,34.11l-.06.07a.51.51,0,0,0-.44.1,5,5,0,0,0-1.7,2.79l-.33,0-.08,0a.52.52,0,0,0-1,.17s-.09.06-.09.08c-.19-.44-.55-.88-.7-1.32,0-.13,0-.23,0-.3s0,.07,0,.06a.52.52,0,0,0-.06-.09v0a.47.47,0,0,0-.83.36,12.64,12.64,0,0,0,1,3.32,6,6,0,0,0,2.09,5.28c0,.16,0,.33,0,.49a.5.5,0,0,0,1,0c0-.53-.06-1.12-.11-1.74a.47.47,0,0,0,.21-.68,4.78,4.78,0,0,1-.34-.7A22.9,22.9,0,0,1,64,39.39c.23-.56.41-1.14.61-1.71l.43-.37a.42.42,0,0,0,0-.69,5.69,5.69,0,0,1,1.18-1.81A.5.5,0,0,0,65.54,34.11Z"/><path class="cls-4" d="M61.12,35.71c0-.09,0-.23,0,0Z"/><path class="cls-4" d="M82,27.55a22.35,22.35,0,0,1-3.74,7.54.6.6,0,0,0,0,.22,3.63,3.63,0,0,0,.11.56,15.37,15.37,0,0,0-.15,2,.5.5,0,0,0,1,.15c0-.13.07-.27.11-.41a.47.47,0,0,0,.18-.23l0-.14h0v0c.23-.65.41-1.32.58-2,.66-.9.5,2,.94.91.11-1.52.91-6.91,1-8.42Z"/></svg>