<svg id="Layer_1" data-name="Layer 1" xmlns="http://www.w3.org/2000/svg" viewBox="0 0 100 100"><defs><style>.cls-1,.cls-2,.cls-3{fill:none;}.cls-1,.cls-2{stroke:#484f59;}.cls-1{stroke-linejoin:bevel;}.cls-1,.cls-2,.cls-3,.cls-4{stroke-width:3px;}.cls-2,.cls-3,.cls-4{stroke-miterlimit:10;}.cls-3,.cls-4{stroke:#f9423e;}.cls-4{fill:#f9423e;}</style></defs><title>product10</title><path class="cls-1" d="M50.09,32.05l-7.68,4.43"/><path class="cls-1" d="M50.15,42.51l-6.88-4"/><line class="cls-1" x1="42.5" y1="74" x2="42.5" y2="37"/><path class="cls-1" d="M30.12,69.75,42,57.26l8,9.05"/><line class="cls-1" x1="11.28" y1="56.44" x2="43.27" y2="37.97"/><polyline class="cls-1" points="8.02 43.34 25.7 47.61 20.11 64.29"/><line class="cls-1" x1="10.42" y1="19.51" x2="42.41" y2="37.97"/><polyline class="cls-1" points="20.14 10.13 25.28 27.58 8.04 31.08"/><line class="cls-1" x1="42.5" x2="42.5" y2="37"/><polyline class="cls-1" points="54.1 4.04 41.99 16.77 30.74 4.04"/><line class="cls-2" x1="80" y1="60.5" x2="86" y2="60.5"/><line class="cls-2" x1="80" y1="51.5" x2="86" y2="51.5"/><line class="cls-2" x1="80" y1="42.5" x2="86" y2="42.5"/><line class="cls-2" x1="80" y1="33.5" x2="86" y2="33.5"/><line class="cls-2" x1="80" y1="24.5" x2="86" y2="24.5"/><path class="cls-2" d="M71.5,72.57v-54a6.08,6.08,0,0,0-5.8-6.1l-.46,0c-.1,0-.18,0-.28,0-3,0-5.46,2.74-5.46,6.1v54.2c-4,2.19-7.39,6.65-7.39,11.82A13.22,13.22,0,0,0,65.32,97.83,13.5,13.5,0,0,0,78.86,84.57,13.94,13.94,0,0,0,71.5,72.57Z"/><line class="cls-3" x1="65.5" y1="66" x2="65.5" y2="83"/><circle class="cls-4" cx="65.8" cy="84.9" r="5.5"/></svg>